<svg width="16" height="16" viewBox="0 0 16 16" fill="none" xmlns="http://www.w3.org/2000/svg">
<path opacity="0.2" d="M14.6666 7.99967C14.6666 11.6823 11.6819 14.6663 7.99992 14.6663C4.31792 14.6663 1.33325 11.6823 1.33325 7.99967C1.33325 4.31834 4.31792 1.33301 7.99992 1.33301C11.6819 1.33301 14.6666 4.31834 14.6666 7.99967Z" fill="#747588"/>
<path d="M10.3819 10.5422C10.292 10.542 10.2039 10.5179 10.1265 10.4722L7.5092 8.91088C7.43505 8.86622 7.37369 8.80317 7.33106 8.72784C7.28843 8.6525 7.26597 8.56744 7.26587 8.48088V5.11621C7.26587 4.9836 7.31855 4.85643 7.41232 4.76266C7.50608 4.66889 7.63326 4.61621 7.76587 4.61621C7.89848 4.61621 8.02565 4.66889 8.11942 4.76266C8.21319 4.85643 8.26587 4.9836 8.26587 5.11621V8.19688L10.6392 9.61221C10.7326 9.66884 10.8049 9.75441 10.8452 9.85592C10.8855 9.95743 10.8916 10.0693 10.8624 10.1746C10.8333 10.2798 10.7706 10.3727 10.6839 10.4391C10.5971 10.5054 10.4911 10.5416 10.3819 10.5422Z" fill="#747588"/>
</svg>
