<svg width="24" height="24" viewBox="0 0 24 24" fill="none" xmlns="http://www.w3.org/2000/svg">
<path fill-rule="evenodd" clip-rule="evenodd" d="M7.42223 19.8203C7.61835 19.8303 7.80313 19.9153 7.9384 20.0577C8.07367 20.2 8.1491 20.3889 8.1491 20.5853C8.1491 20.7817 8.07367 20.9706 7.9384 21.1129C7.80313 21.2553 7.61835 21.3403 7.42223 21.3503C7.21934 21.3503 7.02476 21.2697 6.88129 21.1262C6.73782 20.9828 6.65723 20.7882 6.65723 20.5853C6.65723 20.3824 6.73782 20.1878 6.88129 20.0444C7.02476 19.9009 7.21934 19.8203 7.42223 19.8203V19.8203Z" stroke="white" stroke-width="1.5" stroke-linecap="round" stroke-linejoin="round"/>
<path fill-rule="evenodd" clip-rule="evenodd" d="M18.6752 19.8203C18.7758 19.8204 18.8754 19.8404 18.9683 19.879C19.0611 19.9176 19.1455 19.9742 19.2166 20.0454C19.2876 20.1166 19.3439 20.2011 19.3823 20.2941C19.4207 20.3871 19.4403 20.4867 19.4402 20.5873C19.4401 20.6879 19.4201 20.7875 19.3815 20.8804C19.3429 20.9733 19.2864 21.0576 19.2151 21.1287C19.1439 21.1997 19.0594 21.256 18.9664 21.2944C18.8734 21.3328 18.7738 21.3524 18.6732 21.3523C18.47 21.352 18.2753 21.2711 18.1319 21.1272C17.9884 20.9834 17.9079 20.7885 17.9082 20.5853C17.9085 20.3822 17.9894 20.1874 18.1333 20.044C18.2771 19.9005 18.472 19.82 18.6752 19.8203Z" stroke="white" stroke-width="1.5" stroke-linecap="round" stroke-linejoin="round"/>
<path d="M2.75 3.25L4.83 3.61L5.793 15.083C5.8304 15.5338 6.03596 15.954 6.36887 16.2602C6.70177 16.5665 7.13767 16.7363 7.59 16.736H18.502C19.398 16.736 20.158 16.078 20.287 15.19L21.236 8.632C21.2637 8.44164 21.2501 8.24755 21.1961 8.06292C21.1421 7.87828 21.049 7.70744 20.9231 7.562C20.7972 7.41655 20.6415 7.29992 20.4665 7.22003C20.2915 7.14014 20.1014 7.09886 19.909 7.099H5.164" stroke="white" stroke-width="1.5" stroke-linecap="round" stroke-linejoin="round"/>
<path d="M14.125 10.7949H16.898" stroke="white" stroke-width="1.5" stroke-linecap="round" stroke-linejoin="round"/>
</svg>
