<svg width="18" height="16" viewBox="0 0 18 16" fill="none" xmlns="http://www.w3.org/2000/svg">
<path fill-rule="evenodd" clip-rule="evenodd" d="M17.2839 8.82354C17.4829 8.79658 17.6654 8.69809 17.7971 8.54645C17.9289 8.39482 18.001 8.20041 17.9999 7.99954C18.0012 7.78108 17.9158 7.57101 17.7625 7.41541C17.6091 7.25981 17.4003 7.17139 17.1819 7.16954H2.79888L7.99488 1.91854L8.06888 1.83354C8.18881 1.67311 8.24746 1.4751 8.23426 1.27524C8.22106 1.07537 8.13687 0.8868 7.99688 0.743537C7.92161 0.666608 7.83177 0.605449 7.7326 0.563635C7.63343 0.52182 7.52692 0.500187 7.4193 0.500001C7.31168 0.499815 7.20509 0.521079 7.10578 0.56255C7.00647 0.604022 6.91641 0.664869 6.84088 0.741537L0.240881 7.41154L0.167881 7.49554C0.0806381 7.6113 0.0249941 7.74776 0.00641054 7.89152C-0.012173 8.03527 0.00694264 8.1814 0.061881 8.31554C0.122294 8.46682 0.22655 8.59659 0.36126 8.68817C0.495971 8.77976 0.654985 8.82899 0.817881 8.82954H17.1819L17.2839 8.82354ZM7.99788 15.2555C8.15109 15.0982 8.23657 14.8871 8.23601 14.6674C8.23545 14.4478 8.14889 14.2371 7.99488 14.0805L4.35488 10.4015L4.27088 10.3275C4.11393 10.2065 3.91791 10.1474 3.7202 10.1616C3.52249 10.1758 3.33692 10.2623 3.19888 10.4045C3.04464 10.5611 2.95835 10.7722 2.95873 10.9919C2.9591 11.2117 3.04611 11.4225 3.20088 11.5785L6.84088 15.2585L6.92388 15.3315C7.08112 15.4527 7.27735 15.5118 7.47534 15.4978C7.67332 15.4838 7.85926 15.3976 7.99788 15.2555Z" fill="#00011F"/>
</svg>
