<svg width="24" height="24" viewBox="0 0 24 24" fill="none" xmlns="http://www.w3.org/2000/svg">
<path opacity="0.4" d="M2 11.0791C2.05 13.4161 2.19 17.4161 2.21 17.8561C2.281 18.7991 2.642 19.7521 3.204 20.4241C3.986 21.3681 4.949 21.7881 6.292 21.7881C8.148 21.7981 10.194 21.7981 12.182 21.7981C14.176 21.7981 16.112 21.7981 17.747 21.7881C19.071 21.7881 20.064 21.3571 20.837 20.4241C21.398 19.7531 21.759 18.7901 21.81 17.8571C21.83 17.4851 21.93 13.1451 21.99 11.0791H2Z" fill="white"/>
<path d="M11.245 15.3838V16.6778C11.245 16.8767 11.324 17.0675 11.4647 17.2081C11.6053 17.3488 11.7961 17.4278 11.995 17.4278C12.1939 17.4278 12.3847 17.3488 12.5253 17.2081C12.666 17.0675 12.745 16.8767 12.745 16.6778V15.3838C12.745 15.1849 12.666 14.9941 12.5253 14.8535C12.3847 14.7128 12.1939 14.6338 11.995 14.6338C11.7961 14.6338 11.6053 14.7128 11.4647 14.8535C11.324 14.9941 11.245 15.1849 11.245 15.3838Z" fill="white"/>
<path fill-rule="evenodd" clip-rule="evenodd" d="M10.211 14.556C10.1629 14.7318 10.0525 14.8841 9.90026 14.9844C9.74806 15.0847 9.56454 15.1261 9.384 15.101C6.834 14.745 4.395 13.841 2.337 12.481C2.23324 12.4128 2.14809 12.3199 2.08925 12.2106C2.03042 12.1013 1.99974 11.9791 2 11.855V8.38995C2 6.28995 3.712 4.58195 5.817 4.58195H7.784C7.87456 3.87072 8.22079 3.21673 8.75808 2.74199C9.29537 2.26726 9.98703 2.00422 10.704 2.00195H13.286C14.003 2.00422 14.6946 2.26726 15.2319 2.74199C15.7692 3.21673 16.1154 3.87072 16.206 4.58195H18.183C19.1924 4.58328 20.1602 4.98493 20.8738 5.69881C21.5875 6.41269 21.9889 7.38051 21.99 8.38995V11.856C21.9898 11.9799 21.9591 12.1019 21.9005 12.2111C21.8419 12.3203 21.7572 12.4133 21.654 12.482C19.592 13.847 17.144 14.756 14.576 15.112C14.3932 15.1373 14.2075 15.0944 14.0544 14.9915C13.9013 14.8886 13.7915 14.7328 13.746 14.554C13.6457 14.1651 13.4185 13.8208 13.1004 13.5755C12.7824 13.3303 12.3916 13.1981 11.99 13.2C11.148 13.2 10.433 13.745 10.211 14.557V14.556ZM13.286 3.49995H10.704C10.031 3.49995 9.469 3.95995 9.301 4.58095H14.688C14.6054 4.27193 14.4233 3.9987 14.1699 3.8035C13.9165 3.60829 13.6059 3.50197 13.286 3.50095V3.49995Z" fill="white"/>
</svg>
