<svg width="40" height="40" viewBox="0 0 40 40" fill="none" xmlns="http://www.w3.org/2000/svg">
<circle cx="20" cy="20" r="20" fill="#EDEEF7"/>
<path d="M19.6491 19.6303C21.8482 19.6303 23.6308 17.8477 23.6308 15.6487C23.6308 13.4496 21.8482 11.667 19.6491 11.667C17.4501 11.667 15.6675 13.4496 15.6675 15.6487C15.6675 17.8477 17.4501 19.6303 19.6491 19.6303Z" stroke="#00011F" stroke-width="1.5" stroke-linecap="round" stroke-linejoin="round"/>
<path fill-rule="evenodd" clip-rule="evenodd" d="M13.3335 25.1677C13.3325 24.8879 13.3952 24.6114 13.5168 24.3594C13.8977 23.5969 14.9735 23.1927 15.866 23.0094C16.5096 22.8719 17.162 22.78 17.8185 22.7344C19.0342 22.6276 20.257 22.6276 21.4727 22.7344C22.1285 22.781 22.781 22.8727 23.4252 23.0094C24.3168 23.1927 25.3927 23.5594 25.7752 24.3594C25.8959 24.6132 25.9586 24.8908 25.9586 25.1719C25.9586 25.453 25.8959 25.7305 25.7752 25.9844C25.3927 26.7844 24.3168 27.151 23.4252 27.326C22.7824 27.4695 22.1297 27.5642 21.4727 27.6094C20.4827 27.6927 19.4893 27.7085 18.4977 27.6544C18.2685 27.6544 18.0477 27.6544 17.8185 27.6094C17.1639 27.5647 16.5137 27.47 15.8735 27.326C14.9735 27.151 13.906 26.7844 13.5168 25.9844C13.3956 25.7289 13.333 25.4496 13.3335 25.1669V25.1677Z" stroke="#00011F" stroke-width="1.5" stroke-linecap="round" stroke-linejoin="round"/>
</svg>
