<svg width="24" height="24" viewBox="0 0 24 24" fill="none" xmlns="http://www.w3.org/2000/svg">
<path opacity="0.4" d="M11.991 18.622L5.5 21.864C5.26411 21.9916 4.98746 22.0212 4.72993 21.9463C4.4724 21.8714 4.25471 21.6982 4.124 21.464C4.04377 21.3105 4.00127 21.1401 4 20.967V13.709C4 14.429 4.406 14.873 5.473 15.37L11.991 18.622Z" fill="white"/>
<path fill-rule="evenodd" clip-rule="evenodd" d="M8.895 2H15.07C17.777 2 19.974 3.066 20 5.793V20.967C19.999 21.137 19.956 21.305 19.877 21.455C19.8143 21.5764 19.7276 21.6837 19.6222 21.7705C19.5168 21.8574 19.3948 21.9219 19.2637 21.9601C19.1326 21.9984 18.9951 22.0096 18.8595 21.993C18.7239 21.9765 18.5931 21.9326 18.475 21.864L11.991 18.622L5.473 15.37C4.406 14.873 4 14.428 4 13.71V5.793C4 3.066 6.196 2 8.895 2ZM8.225 9.622H15.749C15.9578 9.62121 16.1578 9.53756 16.305 9.38943C16.4522 9.24131 16.5345 9.04082 16.534 8.832C16.5344 8.72852 16.5144 8.62597 16.4752 8.53022C16.4359 8.43446 16.3782 8.34737 16.3053 8.27392C16.2324 8.20047 16.1458 8.14209 16.0503 8.10213C15.9549 8.06216 15.8525 8.04139 15.749 8.041H8.225C8.01618 8.04179 7.81622 8.12544 7.66903 8.27357C7.52184 8.42169 7.43947 8.62218 7.44 8.831C7.44 9.268 7.791 9.622 8.225 9.622Z" fill="white"/>
</svg>
