<svg width="24" height="24" viewBox="0 0 24 24" fill="none" xmlns="http://www.w3.org/2000/svg">
<path d="M14.2834 3V6.06667C14.2834 7.17124 15.1789 8.06667 16.2834 8.06667H19.3501" stroke="#00011F" stroke-width="1.5" stroke-miterlimit="10"/>
<path d="M19.3499 10.6V8.06667L14.2832 3H6.1499C5.04533 3 4.1499 3.89543 4.1499 5V10.6" stroke="#00011F" stroke-width="1.5" stroke-miterlimit="10" stroke-linecap="square"/>
<path d="M4.1499 19.4668V20.0001C4.1499 21.1047 5.04533 22.0001 6.1499 22.0001H17.3499C18.4545 22.0001 19.3499 21.1047 19.3499 20.0001V19.4668" stroke="#00011F" stroke-width="1.5" stroke-miterlimit="10" stroke-linecap="square"/>
<path d="M8.77333 16.9332H7.69666L7 15.7932L6.24 16.9332H5.16333L6.36666 15.0966L5.22666 13.3232H6.30333L6.93666 14.4632L7.57 13.3232H8.71L7.57 15.1599L8.77333 16.9332Z" fill="#00011F"/>
<path d="M9.21655 16.9332V13.3232H10.1666V16.1732H11.5599V16.9332H9.21655Z" fill="#00011F"/>
<path d="M14.5366 15.8564C14.5366 16.1098 14.4733 16.2998 14.3466 16.4264C14.2199 16.5531 14.0933 16.7431 13.8399 16.8064C13.5866 16.8698 13.3966 16.9331 13.0799 16.9331C12.8266 16.9331 12.6366 16.9331 12.4466 16.8698C12.2566 16.8064 12.1299 16.8064 11.9399 16.6798V15.7931C12.1299 15.9198 12.3199 15.9831 12.5099 16.0464C12.6999 16.1098 12.8899 16.1098 13.0799 16.1098C13.2066 16.1098 13.3333 16.1098 13.3966 16.0464C13.4599 15.9831 13.5233 15.9198 13.5233 15.8564C13.5233 15.7931 13.5233 15.7931 13.4599 15.7298C13.3966 15.6664 13.3966 15.6664 13.3333 15.6031C13.2699 15.5398 13.1433 15.4764 12.8266 15.3498C12.5733 15.2231 12.3833 15.1598 12.3199 15.0331C12.2566 14.9064 12.1299 14.8431 12.0666 14.7164C12.0033 14.5898 12.0033 14.4631 12.0033 14.2731C12.0033 13.9564 12.1299 13.7031 12.3833 13.5131C12.6366 13.3231 12.9533 13.2598 13.3966 13.2598C13.7766 13.2598 14.1566 13.3231 14.5366 13.5131L14.2199 14.2731C13.9033 14.1464 13.5866 14.0198 13.3333 14.0198C13.2066 14.0198 13.1433 14.0198 13.0799 14.0831C13.0166 14.1464 13.0166 14.2098 13.0166 14.2731C13.0166 14.3364 13.0799 14.3998 13.1433 14.4631C13.2066 14.5264 13.3966 14.5898 13.7133 14.7798C14.0299 14.9064 14.2199 15.0964 14.3466 15.2231C14.4733 15.3498 14.5366 15.6031 14.5366 15.8564Z" fill="#00011F"/>
<path d="M18.3368 16.9332H17.1968L16.5001 15.7932L15.8035 16.9332H14.7268L15.9301 15.0966L14.7901 13.3232H15.8668L16.5001 14.4632L17.1335 13.3232H18.2735L17.1335 15.1599L18.3368 16.9332Z" fill="#00011F"/>
<path d="M12.25 10.5996H4.25C3.14543 10.5996 2.25 11.495 2.25 12.5996V17.4663C2.25 18.5708 3.14543 19.4663 4.25 19.4663H19.25C20.3546 19.4663 21.25 18.5708 21.25 17.4663V12.5996C21.25 11.495 20.3546 10.5996 19.25 10.5996H11.75" stroke="#00011F" stroke-width="1.5" stroke-miterlimit="10" stroke-linecap="round"/>
</svg>
