<svg width="16" height="24" viewBox="0 0 16 24" fill="none" xmlns="http://www.w3.org/2000/svg">
<path d="M1.3484 6.33755C1.3484 6.33755 1.37294 6.20272 1.41437 5.96633C1.4573 5.73289 1.52472 5.40486 1.61994 5.02555C1.66795 4.83574 1.72878 4.63525 1.79695 4.42673C1.86474 4.21966 1.94571 4.00568 2.03955 3.79345C2.13188 3.58016 2.24292 3.37095 2.36312 3.16714C2.41849 3.05792 2.49067 2.9843 2.5493 2.88682C2.60096 2.79662 2.7113 2.68344 2.78933 2.58339L2.82084 2.54454L2.83439 2.52803L2.83584 2.52508L2.90325 2.45873L3.03632 2.32679C3.12539 2.23885 3.20894 2.14645 3.29581 2.05889C3.47389 1.88628 3.6674 1.73237 3.84146 1.56779C4.02983 1.4172 4.21236 1.27057 4.38492 1.13242C4.56601 0.99759 4.73674 0.870796 4.89473 0.754234C5.05818 0.643949 5.20845 0.539501 5.34108 0.442711C5.47848 0.357345 5.59686 0.274113 5.69547 0.207075C5.89345 0.0787753 6.01152 0 6.01152 0C6.01152 0 5.87336 0.00144369 5.63183 0.0381009C5.39142 0.0765784 5.05165 0.150269 4.65589 0.288048C4.46313 0.364626 4.24833 0.442711 4.02996 0.545652C3.81849 0.658135 3.58875 0.771433 3.36592 0.913228C3.15037 1.06639 2.91769 1.21521 2.7044 1.39806C2.60177 1.49372 2.49588 1.589 2.39401 1.68868L2.2401 1.83675L2.16283 1.91151L2.1573 1.91703L2.15511 1.91923L2.1364 1.93938L2.12906 1.9493L2.11255 1.96875L2.08029 2.00686C1.9953 2.11971 1.91501 2.20075 1.82701 2.33966C1.7446 2.46865 1.64925 2.60536 1.58993 2.7351C1.45322 2.99308 1.35066 3.26023 1.27546 3.52229C1.12519 4.04635 1.0827 4.54769 1.09845 4.96956C1.10648 5.39206 1.17283 5.73804 1.23183 5.97299C1.29115 6.20925 1.3484 6.33755 1.3484 6.33755Z" fill="#747588"/>
<path d="M15.3329 7.21232C15.3168 6.97518 15.2845 6.74174 15.2421 6.51125C15.1951 6.28553 15.1395 6.03339 15.075 5.83215L14.9812 5.52213L14.8624 5.19485C14.7898 4.98564 14.6974 4.78296 14.6131 4.58103C14.2591 3.77733 13.7901 3.04915 13.2455 2.44776C12.7045 1.8409 12.0801 1.37616 11.4614 1.04668C10.8421 0.712062 10.2271 0.516034 9.67886 0.399095C9.12913 0.278892 8.64285 0.243741 8.24521 0.234577C7.84644 0.223215 7.53498 0.251085 7.32351 0.26979C7.11317 0.291759 7.00138 0.305317 7.00138 0.305317C7.00138 0.305317 7.11317 0.309711 7.32495 0.318499C7.53498 0.330551 7.84355 0.359927 8.22946 0.415289C8.61498 0.472472 9.07785 0.571396 9.58872 0.735914C10.0974 0.904136 10.6501 1.14894 11.1961 1.49856C11.7386 1.85114 12.2677 2.31726 12.728 2.89009C13.1897 3.46361 13.568 4.1493 13.875 4.8962C13.9454 5.08601 14.0238 5.27369 14.0839 5.47192L14.1763 5.75482L14.2599 6.06854C14.3192 6.28258 14.3464 6.45953 14.3838 6.6644C14.4161 6.86784 14.4431 7.06977 14.4549 7.27458C14.5069 8.09366 14.3669 8.92228 14.043 9.69961C13.7337 10.4839 13.2689 11.2235 12.7734 11.9396C12.3014 12.6132 11.8184 13.2861 11.3721 13.9677C11.496 13.5543 11.6015 13.1365 11.6857 12.7114C11.8434 11.8898 11.9129 11.0476 11.8704 10.1952C11.8279 9.3449 11.6623 8.47197 11.2511 7.66645C11.202 7.56533 11.1463 7.4671 11.0862 7.36993C11.0326 7.27389 10.9631 7.17353 10.8897 7.07347C10.8164 6.96463 10.7549 6.89646 10.6903 6.81913L10.6419 6.7627L10.6156 6.73195L10.6024 6.71726L10.576 6.68794L10.4646 6.57063C10.1685 6.25917 9.84156 5.98901 9.51321 5.73981C8.85683 5.23917 8.18433 4.8166 7.60202 4.3395C7.31064 4.09909 7.05266 3.83634 6.84816 3.53762C6.63669 3.24442 6.4927 2.90654 6.4131 2.54411C6.33508 2.18092 6.31305 1.79351 6.34387 1.40328C6.34751 1.35268 6.35674 1.30172 6.36182 1.25156C6.39591 1.10355 6.42967 0.954351 6.45566 0.805212C6.48642 0.61138 6.5055 0.421503 6.52565 0.229492C6.51429 0.252591 6.50437 0.276757 6.49269 0.30061C6.50443 0.277511 6.5136 0.252591 6.52565 0.229492C6.50142 0.261756 6.48058 0.296906 6.45635 0.329923C6.41166 0.365827 6.34387 0.425897 6.25549 0.519737C6.10083 0.686515 5.89049 0.955858 5.70136 1.3454C5.5199 1.71336 5.34257 2.18758 5.2601 2.76261C4.94857 3.23174 4.60629 3.6781 4.2497 4.11641C3.76964 4.69872 3.27194 5.27156 2.775 5.8715C2.5324 6.17675 2.29381 6.48978 2.06954 6.8229C1.84966 7.15237 1.63637 7.49867 1.47147 7.87692L1.24826 8.31084L1.03679 8.79021C0.912197 9.11893 0.795635 9.45462 0.735941 9.8087C0.698154 9.98421 0.675809 10.1638 0.662251 10.3449C0.645052 10.5241 0.646495 10.7088 0.653839 10.891L0.675808 11.1651L0.726024 11.4374C0.768958 11.6162 0.817667 11.7954 0.889475 11.9636C0.952496 12.1355 1.03899 12.2989 1.13277 12.4544C1.22366 12.6134 1.33401 12.757 1.45013 12.8927C1.68508 13.1638 1.95222 13.3977 2.24209 13.5897C2.8222 13.9665 3.4654 14.2186 4.12724 14.3138C3.82268 14.1805 3.53758 14.0147 3.26491 13.8403C2.99551 13.6593 2.73677 13.468 2.50999 13.2496C2.2817 13.0326 2.07537 12.7996 1.91406 12.5445C1.83384 12.4163 1.76159 12.285 1.69932 12.1502C1.63699 12.0168 1.58245 11.8797 1.54617 11.7379C1.50292 11.5976 1.48089 11.4524 1.46149 11.3091C1.44498 11.1644 1.43915 11.0189 1.4399 10.8723C1.44354 10.7261 1.45088 10.5788 1.47511 10.4311C1.49526 10.2848 1.52313 10.1375 1.5638 9.99274C1.59274 9.84649 1.65356 9.70363 1.69499 9.55813C1.74226 9.41407 1.80383 9.27152 1.85625 9.12822L2.05303 8.70641L2.27586 8.29264L2.28427 8.27764L2.29381 8.25749C2.44697 7.94013 2.61814 7.62496 2.81862 7.31859C3.01729 7.01077 3.23679 6.70916 3.46471 6.40975C3.91068 5.80101 4.39846 5.20144 4.83239 4.55134C4.97425 4.33987 5.11202 4.12439 5.24503 3.9045C5.2923 4.23837 5.38469 4.58361 5.55505 4.92513C5.73206 5.28612 5.98791 5.63279 6.30853 5.92931C6.38957 6.00081 6.47531 6.07042 6.56067 6.14041C6.65006 6.20418 6.74095 6.2694 6.83403 6.32953C6.90295 6.37058 6.97514 6.41276 7.04475 6.45488C7.07626 6.47942 7.10633 6.50805 7.13784 6.53221C7.27379 6.64181 7.4208 6.72642 7.5626 6.8239L7.77808 6.9463C8.23216 7.31934 8.64336 7.80053 8.96329 8.34003C9.02342 8.44159 9.0732 8.55112 9.12599 8.65708C9.15166 8.72374 9.17878 8.78902 9.2037 8.85643C9.27262 9.09207 9.33564 9.33178 9.36056 9.58173C9.42502 10.0761 9.39282 10.5911 9.30633 11.1008C9.21399 11.6109 9.08054 12.124 8.89958 12.6254C8.78779 12.9413 8.65547 13.2513 8.51587 13.5592C8.39128 13.6728 8.25714 13.7893 8.11202 13.9051C7.81336 14.1397 7.47874 14.3823 7.11373 14.6308C6.74176 14.8756 6.35002 15.1337 5.94321 15.4004C5.53383 15.6702 5.10688 15.9538 4.69021 16.28C4.27318 16.6025 3.85137 16.9514 3.47607 17.3589C3.09638 17.7605 2.76219 18.2224 2.51005 18.7222C2.25094 19.2118 2.08749 19.8422 2.18572 20.4235C2.27881 21.0121 2.60094 21.4877 2.93776 21.8374C3.2801 22.1935 3.66231 22.4369 4.01488 22.6377C4.36928 22.84 4.713 22.9778 5.01611 23.0921C5.12345 23.1332 5.22501 23.1669 5.32393 23.1991C5.43127 23.2856 5.54231 23.3677 5.6563 23.4381C6.22141 23.776 6.83855 23.9394 7.44729 23.9871C8.66219 24.0714 9.8811 23.7687 10.8633 23.0936C11.3544 22.7579 11.7751 22.3226 12.0712 21.8183C12.3307 21.3888 12.4816 20.9094 12.5535 20.4286C12.662 20.2674 12.7514 20.1266 12.8195 20.0174C12.9354 19.8224 12.9969 19.719 12.9969 19.719C12.9969 19.719 12.9493 19.7719 12.8584 19.8716C12.9097 19.7623 12.958 19.6531 12.9969 19.5409C12.9859 19.5563 12.9749 19.5718 12.9654 19.5871C12.9668 19.5819 12.9698 19.5747 12.9713 19.5703C12.9874 19.5189 12.9969 19.4918 12.9969 19.4918C12.9969 19.4918 12.9845 19.5167 12.9595 19.5651C12.9383 19.6112 12.9031 19.6758 12.851 19.7513C12.7968 19.8253 12.7411 19.8949 12.6817 19.9638C12.5593 20.0929 12.3937 20.2248 12.1643 20.3083C11.8234 20.4329 11.3375 20.3838 10.9673 20.0555C10.5891 19.7396 10.3758 19.1781 10.3619 18.5609C10.3546 18.2502 10.3927 17.9211 10.4704 17.5875C10.51 17.4189 10.5569 17.2555 10.6082 17.0906C10.6331 17.0078 10.6712 16.914 10.7006 16.8252L10.7474 16.6991L10.8002 16.5716C11.0802 15.8871 11.4951 15.2142 11.9598 14.534C12.4275 13.8524 12.9758 13.1809 13.4932 12.4465C14.0121 11.7146 14.5252 10.9282 14.8887 10.0394C15.2493 9.1517 15.4084 8.16114 15.3329 7.21232ZM8.27377 18.7789C8.28187 18.7539 8.29392 18.7282 8.30384 18.7026C8.29248 18.803 8.28482 18.9049 8.28043 19.006C8.26831 19.4062 8.31049 19.8255 8.47168 20.2243C8.63074 20.6215 8.92243 20.9843 9.29189 21.2071C9.65984 21.4336 10.0857 21.5275 10.4836 21.5054C10.771 21.493 11.0451 21.4277 11.3016 21.3295C11.1829 21.4189 11.0597 21.5076 10.9263 21.5949C10.4601 21.8939 9.86792 22.1856 9.2713 22.1754C8.67581 22.1665 8.21364 21.7327 8.05973 21.0489C7.90142 20.3708 8.01466 19.5602 8.27377 18.7789ZM9.81225 7.42121L9.81595 7.42561C9.82398 7.43364 9.81808 7.4278 9.81225 7.42121ZM7.09076 4.88188C7.67238 5.49501 8.32913 5.96409 8.89826 6.48306C9.18556 6.74036 9.45019 7.00675 9.69349 7.28161L9.78287 7.38569L9.80559 7.41205L9.80779 7.415L9.80854 7.41575L9.81369 7.42347L9.85913 7.48248C9.9192 7.56163 9.98517 7.6463 10.0174 7.70713C10.0958 7.83028 10.1867 7.99153 10.2527 8.1484C10.3942 8.465 10.4939 8.80735 10.5605 9.16174C10.5657 9.18741 10.5679 9.21415 10.5729 9.23983C10.3941 8.72054 10.1567 8.22579 9.86642 7.77831C9.33137 6.94605 8.61122 6.30285 7.802 5.86234C7.6206 5.77145 7.44101 5.682 7.26551 5.59444C7.2087 5.56293 7.15811 5.52514 7.1035 5.49219C7.03753 5.43683 6.96754 5.38335 6.90452 5.32322C6.80008 5.22209 6.7004 5.1162 6.608 5.00366L6.47462 4.83104L6.35586 4.64706C6.28292 4.52247 6.21105 4.39492 6.15537 4.26041C6.09235 4.12702 6.04728 3.98667 6.00366 3.84556C5.96336 3.70302 5.93254 3.55645 5.90913 3.408C5.88967 3.25924 5.87467 3.10859 5.87172 2.95612C5.87028 2.86925 5.87542 2.78207 5.87831 2.69482C5.90838 2.6274 5.94133 2.56143 5.96989 2.49402C5.97133 2.48925 5.97322 2.48485 5.97466 2.48046C5.9761 2.52151 5.97466 2.56218 5.97761 2.60324C6.00837 3.02837 6.12016 3.46192 6.32429 3.84927C6.52709 4.23724 6.79869 4.58022 7.09076 4.88188ZM6.48642 0.316239C6.38235 0.544594 6.28524 0.778723 6.20647 1.02026C6.19253 1.05397 6.17897 1.08661 6.16397 1.11887C6.16473 1.11812 6.16473 1.11705 6.16473 1.11554C6.25229 0.84325 6.36038 0.576794 6.48642 0.316239ZM3.42592 21.4058C3.17195 21.0891 2.9898 20.7124 2.95829 20.3232C2.92131 19.9274 3.03493 19.5309 3.2742 19.1277C3.5062 18.7202 3.79977 18.3362 4.13872 17.9821C4.47956 17.6296 4.84638 17.2887 5.2385 16.9787C5.631 16.6687 6.02714 16.366 6.41599 16.0691C6.80704 15.7767 7.18667 15.4864 7.53341 15.1888C7.62285 15.1141 7.70935 15.0401 7.79396 14.966C7.68512 15.1581 7.57559 15.3509 7.46304 15.5414C7.18454 16.0134 6.88293 16.4752 6.57141 16.9318C6.25913 17.3899 5.93706 17.8231 5.59698 18.2804C5.2525 18.7452 4.90947 19.2706 4.67565 19.8562C4.44033 20.4368 4.29414 21.1229 4.44585 21.8206C4.50191 22.0743 4.60635 22.319 4.74156 22.5411C4.59204 22.4422 4.43882 22.3366 4.28347 22.2223C3.98117 21.9965 3.68101 21.7209 3.42592 21.4058ZM11.8543 21.6682C11.5128 22.0932 11.0847 22.4348 10.6141 22.6869C10.1435 22.9405 9.62683 23.0974 9.10572 23.1853C8.58348 23.2696 8.04987 23.2733 7.54119 23.1897C7.03358 23.1025 6.54291 22.9391 6.15625 22.6664C5.77003 22.3952 5.51532 22.025 5.45223 21.6109C5.3786 21.1967 5.47941 20.7284 5.68278 20.2799C5.88616 19.8261 6.17678 19.4062 6.51943 18.9818C6.86504 18.5457 7.21686 18.0751 7.54634 17.6082C7.54923 17.6023 7.55406 17.5957 7.55845 17.5913C7.439 17.8772 7.32941 18.1659 7.24473 18.4599C6.97759 19.3893 6.89109 20.3809 7.18096 21.3022C7.32571 21.7582 7.58551 22.2009 7.97876 22.5036C8.37201 22.8056 8.87046 22.9184 9.29333 22.8818C10.1538 22.8005 10.749 22.357 11.2107 21.9729C11.6754 21.5771 12.006 21.1711 12.2648 20.8317C12.3439 20.729 12.4128 20.6338 12.4765 20.5422C12.3278 20.9535 12.1167 21.3346 11.8543 21.6682ZM10.757 20.3312C11.1514 20.6171 11.608 20.6596 11.9649 20.5716C11.7971 20.6727 11.6211 20.7578 11.4394 20.8208C10.8237 21.0415 10.1245 20.9799 9.68614 20.6288C9.24343 20.2814 9.11959 19.6789 9.19215 19.0719C9.26684 18.4665 9.5161 17.8611 9.80854 17.2762C9.85913 17.2022 9.90602 17.1282 9.95435 17.0526C9.92065 17.1949 9.89133 17.3364 9.87225 17.4755C9.81727 17.8567 9.80189 18.2342 9.84074 18.597C9.90973 19.3168 10.2425 19.9882 10.757 20.3312Z" fill="#747588"/>
</svg>
