<svg width="24" height="24" viewBox="0 0 24 24" fill="none" xmlns="http://www.w3.org/2000/svg">
<path fill-rule="evenodd" clip-rule="evenodd" d="M20.8069 7.62432L20.1839 6.54432C19.9311 6.10553 19.5145 5.78491 19.0256 5.65275C18.5367 5.5206 18.0154 5.58769 17.5759 5.83932C17.3601 5.96655 17.1213 6.04994 16.8733 6.08472C16.6252 6.1195 16.3727 6.10498 16.1302 6.042C15.8877 5.97901 15.6601 5.8688 15.4603 5.71768C15.2605 5.56655 15.0925 5.37749 14.9659 5.16132C14.8019 4.88404 14.714 4.56844 14.7109 4.24632C14.7183 3.99043 14.6742 3.73566 14.5813 3.49711C14.4884 3.25856 14.3486 3.04109 14.1701 2.85757C13.9916 2.67405 13.7781 2.52822 13.5422 2.42872C13.3064 2.32923 13.0529 2.27808 12.7969 2.27832H11.5429C11.2922 2.27845 11.044 2.32809 10.8125 2.4244C10.581 2.5207 10.3708 2.66178 10.194 2.83952C10.0172 3.01727 9.87725 3.22818 9.78216 3.46016C9.68707 3.69214 9.63873 3.94061 9.63991 4.19132C9.63282 4.69399 9.42814 5.17366 9.07015 5.5266C8.71216 5.87953 8.22963 6.07737 7.72691 6.07732C7.40426 6.07391 7.08825 5.98525 6.81091 5.82032C6.37142 5.56869 5.85007 5.5016 5.36119 5.63375C4.8723 5.76591 4.45577 6.08653 4.20291 6.52532L3.53391 7.62432C3.28153 8.06273 3.21306 8.58325 3.3435 9.07201C3.47394 9.56076 3.79265 9.97796 4.22991 10.2323C4.52086 10.4002 4.76248 10.6417 4.93048 10.9326C5.09847 11.2234 5.18692 11.5534 5.18692 11.8893C5.18692 12.2252 5.09847 12.5552 4.93048 12.8461C4.76248 13.1369 4.52086 13.3785 4.22991 13.5463C3.79299 13.799 3.47426 14.2147 3.34375 14.7023C3.21324 15.1898 3.28164 15.7092 3.53391 16.1463L4.16591 17.2353C4.2881 17.4558 4.45264 17.6499 4.65008 17.8065C4.84751 17.9631 5.07396 18.0792 5.3164 18.1481C5.55884 18.2169 5.81249 18.2372 6.06279 18.2077C6.31309 18.1783 6.5551 18.0996 6.77491 17.9763C6.99101 17.8501 7.23 17.7679 7.47804 17.7346C7.72609 17.7012 7.97829 17.7174 8.22005 17.7821C8.46182 17.8468 8.68836 17.9588 8.88658 18.1116C9.0848 18.2644 9.25078 18.455 9.37491 18.6723C9.53891 18.9493 9.62691 19.2653 9.62991 19.5873C9.62991 20.6433 10.4869 21.5003 11.5429 21.5003H12.7979C13.8509 21.5003 14.7059 20.6503 14.7099 19.5963C14.7087 19.3447 14.7574 19.0953 14.8532 18.8626C14.949 18.6299 15.0899 18.4185 15.2679 18.2406C15.4459 18.0627 15.6574 17.9219 15.8901 17.8262C16.1229 17.7306 16.3723 17.682 16.6239 17.6833C16.9449 17.6923 17.2599 17.7803 17.5389 17.9393C17.9773 18.1921 18.498 18.2609 18.9869 18.1306C19.4759 18.0004 19.8934 17.6817 20.1479 17.2443L20.8069 16.1453C20.9331 15.9285 21.0152 15.689 21.0485 15.4404C21.0818 15.1918 21.0656 14.939 21.0009 14.6967C20.9362 14.4543 20.8243 14.2272 20.6716 14.0282C20.5189 13.8292 20.3283 13.6624 20.1109 13.5373C19.8932 13.4122 19.7025 13.2453 19.5496 13.0462C19.3966 12.8471 19.2846 12.6197 19.2199 12.3771C19.1552 12.1345 19.1392 11.8816 19.1726 11.6327C19.2061 11.3839 19.2884 11.1442 19.4149 10.9273C19.5809 10.6383 19.8209 10.3983 20.1109 10.2323C20.546 9.978 20.8632 9.56226 20.9935 9.07543C21.1238 8.58859 21.0568 8.07 20.8069 7.63232V7.62432V7.62432Z" stroke="#00011F" stroke-width="1.5" stroke-linecap="round" stroke-linejoin="round"/>
<path d="M12.1748 14.5249C13.6306 14.5249 14.8108 13.3448 14.8108 11.8889C14.8108 10.4331 13.6306 9.25293 12.1748 9.25293C10.719 9.25293 9.53882 10.4331 9.53882 11.8889C9.53882 13.3448 10.719 14.5249 12.1748 14.5249Z" stroke="#00011F" stroke-width="1.5" stroke-linecap="round" stroke-linejoin="round"/>
</svg>
