<svg width="24" height="24" viewBox="0 0 24 24" fill="none" xmlns="http://www.w3.org/2000/svg">
<path d="M2.8042 15.4766C2.8042 15.4766 2.9462 17.2146 2.9792 17.7626C3.0232 18.4976 3.3072 19.3186 3.7812 19.8886C4.4512 20.6966 5.2382 20.9816 6.2912 20.9836C7.5272 20.9856 16.5222 20.9856 17.7592 20.9836C18.8112 20.9816 19.5992 20.6966 20.2692 19.8886C20.7422 19.3186 21.0262 18.4976 21.0712 17.7626C21.1032 17.2146 21.2452 15.4766 21.2452 15.4766" stroke="white" stroke-width="1.5" stroke-linecap="round" stroke-linejoin="round"/>
<path d="M8.49609 5.33V4.958C8.49609 3.738 9.48409 2.75 10.7041 2.75H13.2861C14.5051 2.75 15.4941 3.738 15.4941 4.958L15.4951 5.329" stroke="white" stroke-width="1.5" stroke-linecap="round" stroke-linejoin="round"/>
<path d="M11.9951 16.6778V15.3838" stroke="white" stroke-width="1.5" stroke-linecap="round" stroke-linejoin="round"/>
<path fill-rule="evenodd" clip-rule="evenodd" d="M2.75 8.39004V11.856C4.668 13.121 6.966 14.007 9.488 14.358C9.63683 13.8089 9.96272 13.3243 10.4151 12.9793C10.8675 12.6343 11.4211 12.4483 11.99 12.45C13.178 12.45 14.19 13.257 14.473 14.368C17.005 14.018 19.312 13.131 21.24 11.856V8.39004C21.2411 7.98825 21.1627 7.5902 21.0095 7.21878C20.8562 6.84735 20.6311 6.50987 20.347 6.22571C20.063 5.94155 19.7256 5.71632 19.3542 5.56295C18.9828 5.40959 18.5848 5.33112 18.183 5.33204H5.817C5.41473 5.33112 5.01624 5.40952 4.6443 5.56277C4.27237 5.71601 3.9343 5.94108 3.64943 6.22511C3.36457 6.50913 3.13851 6.84654 2.98417 7.21802C2.82984 7.58951 2.75026 7.98777 2.75 8.39004Z" stroke="white" stroke-width="1.5" stroke-linecap="round" stroke-linejoin="round"/>
</svg>
