<svg width="24" height="24" viewBox="0 0 24 24" fill="none" xmlns="http://www.w3.org/2000/svg">
<path d="M16.02 10.9133C16.8944 10.9133 17.733 10.566 18.3514 9.94767C18.9697 9.32936 19.317 8.49076 19.317 7.61634C19.317 6.74192 18.9697 5.90331 18.3514 5.28501C17.733 4.6667 16.8944 4.31934 16.02 4.31934" stroke="white" stroke-width="1.5" stroke-linecap="round" stroke-linejoin="round"/>
<path d="M17.5361 14.4961C18.0802 14.5332 18.6207 14.6111 19.1531 14.7291C19.8931 14.8761 20.7831 15.1791 21.0981 15.8421C21.3001 16.2671 21.3001 16.7621 21.0981 17.1871C20.7831 17.8501 19.8921 18.1531 19.1531 18.3051" stroke="white" stroke-width="1.5" stroke-linecap="round" stroke-linejoin="round"/>
<path fill-rule="evenodd" clip-rule="evenodd" d="M9.59098 15.2061C13.281 15.2061 16.433 15.7661 16.433 17.9981C16.433 20.2321 13.301 20.8101 9.59098 20.8101C5.90098 20.8101 2.75098 20.2521 2.75098 18.0181C2.75098 15.7841 5.88098 15.2061 9.59098 15.2061V15.2061Z" stroke="white" stroke-width="1.5" stroke-linecap="round" stroke-linejoin="round"/>
<path fill-rule="evenodd" clip-rule="evenodd" d="M9.59106 12.019C9.01471 12.021 8.44365 11.9089 7.9108 11.6893C7.37795 11.4696 6.89383 11.1466 6.48633 10.7391C6.07883 10.3315 5.756 9.84727 5.53645 9.31436C5.31689 8.78146 5.20495 8.21038 5.20706 7.63403C5.20495 7.05772 5.3169 6.48669 5.53647 5.95385C5.75603 5.421 6.07888 4.93687 6.48639 4.52936C6.8939 4.12184 7.37803 3.799 7.91088 3.57943C8.44372 3.35987 9.01475 3.24791 9.59106 3.25003C10.1674 3.24805 10.7384 3.36008 11.2712 3.57969C11.8041 3.79929 12.2882 4.12212 12.6958 4.52959C13.1034 4.93707 13.4263 5.42114 13.646 5.95393C13.8657 6.48672 13.9779 7.05771 13.9761 7.63403C13.978 8.21043 13.866 8.78153 13.6463 9.31444C13.4266 9.84735 13.1037 10.3315 12.6961 10.7391C12.2886 11.1467 11.8044 11.4696 11.2715 11.6893C10.7386 11.9089 10.1675 12.021 9.59106 12.019V12.019Z" stroke="white" stroke-width="1.5" stroke-linecap="round" stroke-linejoin="round"/>
</svg>
