<svg width="24" height="24" viewBox="0 0 24 24" fill="none" xmlns="http://www.w3.org/2000/svg">
<path fill-rule="evenodd" clip-rule="evenodd" d="M16.285 2H19.552C20.2041 2.00318 20.8282 2.26513 21.2873 2.72829C21.7463 3.19145 22.0027 3.81791 22 4.47V7.764C22 9.127 20.904 10.234 19.552 10.234H16.285C15.6329 10.2308 15.0088 9.96887 14.5497 9.50571C14.0907 9.04255 13.8343 8.41609 13.837 7.764V4.47C13.8343 3.81791 14.0907 3.19145 14.5497 2.72829C15.0088 2.26513 15.6329 2.00318 16.285 2V2Z" stroke="#00011F" stroke-width="1.5" stroke-linecap="round" stroke-linejoin="round"/>
<path fill-rule="evenodd" clip-rule="evenodd" d="M4.44899 2H7.71399C8.03704 2.00131 8.35667 2.06624 8.65463 2.19108C8.95259 2.31592 9.22305 2.49822 9.45055 2.72758C9.67805 2.95694 9.85815 3.22887 9.98057 3.52783C10.103 3.8268 10.1653 4.14695 10.164 4.47V7.764C10.1653 8.08705 10.103 8.4072 9.98057 8.70617C9.85815 9.00513 9.67805 9.27706 9.45055 9.50642C9.22305 9.73578 8.95259 9.91808 8.65463 10.0429C8.35667 10.1678 8.03704 10.2327 7.71399 10.234H4.44999C4.12694 10.2327 3.80731 10.1678 3.50935 10.0429C3.21139 9.91808 2.94093 9.73578 2.71343 9.50642C2.48593 9.27706 2.30583 9.00513 2.18341 8.70617C2.061 8.4072 1.99867 8.08705 1.99999 7.764V4.47C1.99733 3.81774 2.25383 3.19112 2.71308 2.72793C3.17233 2.26475 3.79673 2.00291 4.44899 2V2Z" stroke="#00011F" stroke-width="1.5" stroke-linecap="round" stroke-linejoin="round"/>
<path fill-rule="evenodd" clip-rule="evenodd" d="M4.44899 13.7656H7.71399C8.03705 13.7669 8.35668 13.8319 8.65464 13.9567C8.9526 14.0815 9.22305 14.2638 9.45055 14.4932C9.67806 14.7226 9.85816 14.9945 9.98057 15.2935C10.103 15.5924 10.1653 15.9126 10.164 16.2356V19.5296C10.1653 19.8528 10.1029 20.173 9.98047 20.472C9.858 20.771 9.67781 21.043 9.4502 21.2724C9.22259 21.5018 8.95202 21.6841 8.65394 21.8088C8.35587 21.9336 8.03613 21.9984 7.71299 21.9996H4.44999C4.12694 21.9983 3.80731 21.9334 3.50935 21.8085C3.21139 21.6837 2.94094 21.5014 2.71343 21.272C2.48593 21.0427 2.30583 20.7708 2.18342 20.4718C2.06101 20.1728 1.99868 19.8527 1.99999 19.5296V16.2366C1.99855 15.9136 2.06074 15.5934 2.18303 15.2944C2.30533 14.9954 2.48531 14.7234 2.71273 14.4939C2.94014 14.2645 3.21052 14.082 3.50843 13.9571C3.80634 13.8321 4.12594 13.7671 4.44899 13.7656V13.7656Z" stroke="#00011F" stroke-width="1.5" stroke-linecap="round" stroke-linejoin="round"/>
<path fill-rule="evenodd" clip-rule="evenodd" d="M16.285 13.7656H19.552C20.904 13.7656 22 14.8716 22 16.2356V19.5296C22.0027 20.1817 21.7463 20.8082 21.2873 21.2713C20.8282 21.7345 20.2041 21.9964 19.552 21.9996H16.285C15.6329 21.9964 15.0088 21.7345 14.5497 21.2713C14.0907 20.8082 13.8343 20.1817 13.837 19.5296V16.2366C13.8341 15.5844 14.0903 14.9576 14.5494 14.4943C15.0084 14.0309 15.6327 13.7688 16.285 13.7656V13.7656Z" stroke="#00011F" stroke-width="1.5" stroke-linecap="round" stroke-linejoin="round"/>
</svg>
