<svg width="24" height="24" viewBox="0 0 24 24" fill="none" xmlns="http://www.w3.org/2000/svg">
<path fill-rule="evenodd" clip-rule="evenodd" d="M11.6649 18.6323L5.7329 21.8803C5.50503 21.9985 5.24013 22.0235 4.99418 21.95C4.74822 21.8765 4.5405 21.7102 4.4149 21.4863C4.33947 21.3424 4.29872 21.1828 4.2959 21.0203V6.62232C4.2959 3.87632 6.1729 2.77832 8.8729 2.77832H15.2159C17.8339 2.77832 19.7929 3.80332 19.7929 6.43932V21.0213C19.7926 21.2811 19.6893 21.5301 19.5055 21.7136C19.3218 21.8972 19.0726 22.0003 18.8129 22.0003C18.6472 21.9977 18.4843 21.957 18.3369 21.8813L12.3699 18.6313C12.2616 18.5728 12.1405 18.5421 12.0174 18.5421C11.8943 18.5421 11.7732 18.5728 11.6649 18.6313V18.6323Z" stroke="white" stroke-width="1.5" stroke-linecap="round" stroke-linejoin="round"/>
<path d="M8.37012 9.32324H15.6651" stroke="white" stroke-width="1.5" stroke-linecap="round" stroke-linejoin="round"/>
</svg>
