<svg width="24" height="24" viewBox="0 0 24 24" fill="none" xmlns="http://www.w3.org/2000/svg">
<path opacity="0.4" fill-rule="evenodd" clip-rule="evenodd" d="M5.90991 20.5884C5.90991 19.7484 6.58991 19.0684 7.42991 19.0684C7.72912 19.0693 8.02134 19.1589 8.26971 19.3258C8.51809 19.4926 8.71149 19.7293 8.82554 20.0059C8.93958 20.2825 8.96917 20.5867 8.91055 20.8801C8.85193 21.1736 8.70775 21.443 8.49617 21.6546C8.2846 21.8662 8.01511 22.0104 7.72169 22.069C7.42828 22.1276 7.12408 22.098 6.84745 21.984C6.57083 21.8699 6.33417 21.6765 6.16732 21.4282C6.00047 21.1798 5.9109 20.8876 5.90991 20.5884ZM17.1599 20.5884C17.1599 19.7484 17.8399 19.0684 18.6799 19.0684C18.9791 19.0693 19.2713 19.1589 19.5197 19.3258C19.7681 19.4926 19.9615 19.7293 20.0755 20.0059C20.1896 20.2825 20.2192 20.5867 20.1605 20.8801C20.1019 21.1736 19.9577 21.443 19.7462 21.6546C19.5346 21.8662 19.2651 22.0104 18.9717 22.069C18.6783 22.1276 18.3741 22.098 18.0975 21.984C17.8208 21.8699 17.5842 21.6765 17.4173 21.4282C17.2505 21.1798 17.1609 20.8876 17.1599 20.5884Z" fill="white"/>
<path fill-rule="evenodd" clip-rule="evenodd" d="M20.1899 6.34933C20.7999 6.34933 21.1999 6.55933 21.5999 7.01933C21.9999 7.47933 22.0699 8.13933 21.9799 8.73833L21.0299 15.2983C20.9427 15.9069 20.6388 16.4635 20.174 16.8659C19.7092 17.2682 19.1147 17.4892 18.4999 17.4883H7.58994C6.25994 17.4883 5.15994 16.4683 5.04994 15.1493L4.12994 4.24833L2.61994 3.98833C2.42593 3.95337 2.25336 3.84371 2.13931 3.68291C2.02525 3.52211 1.9788 3.323 2.00994 3.12833C2.07994 2.71833 2.46994 2.44833 2.87994 2.50833L5.26594 2.86833C5.60594 2.92933 5.85594 3.20833 5.88594 3.54833L6.07594 5.78833C6.08828 5.94147 6.15796 6.08432 6.27105 6.18833C6.38414 6.29233 6.5323 6.34983 6.68594 6.34933H20.1899ZM14.1299 11.5483H16.8999C17.3199 11.5483 17.6499 11.2083 17.6499 10.7983C17.6499 10.3783 17.3199 10.0483 16.8999 10.0483H14.1299C13.7099 10.0483 13.3799 10.3783 13.3799 10.7983C13.3799 11.2083 13.7099 11.5483 14.1299 11.5483Z" fill="white"/>
</svg>
