<svg width="24" height="24" viewBox="0 0 24 24" fill="none" xmlns="http://www.w3.org/2000/svg">
<path d="M11.492 2.78906H7.753C4.678 2.78906 2.75 4.96606 2.75 8.04806V16.3621C2.75 19.4441 4.67 21.6211 7.753 21.6211H16.577C19.662 21.6211 21.581 19.4441 21.581 16.3621V12.3341" stroke="white" stroke-width="1.5" stroke-linecap="round" stroke-linejoin="round"/>
<path fill-rule="evenodd" clip-rule="evenodd" d="M8.82812 10.9205L16.3001 3.44945C17.2301 2.51945 18.7401 2.51945 19.6701 3.44945L20.8881 4.66645C21.335 5.11335 21.5861 5.71946 21.5861 6.35145C21.5861 6.98345 21.335 7.58956 20.8881 8.03645L13.3781 15.5465C12.9713 15.9535 12.4196 16.1822 11.8441 16.1825H8.09912L8.19312 12.4025C8.20711 11.8459 8.43445 11.3161 8.82812 10.9225V10.9205Z" stroke="white" stroke-width="1.5" stroke-linecap="round" stroke-linejoin="round"/>
<path d="M15.165 4.60352L19.731 9.16952" stroke="white" stroke-width="1.5" stroke-linecap="round" stroke-linejoin="round"/>
</svg>
