<svg width="24" height="24" viewBox="0 0 24 24" fill="none" xmlns="http://www.w3.org/2000/svg">
<path fill-rule="evenodd" clip-rule="evenodd" d="M5.438 10.759C7.338 10.759 8.878 9.245 8.878 7.379C8.878 5.513 7.339 4 5.439 4C3.54 4 2 5.513 2 7.378C2 9.244 3.54 10.758 5.438 10.759ZM22 7.379C22 6.562 21.324 5.899 20.493 5.899H13.918C13.086 5.899 12.41 6.562 12.41 7.379C12.41 8.196 13.086 8.859 13.918 8.859H20.493C21.324 8.859 22 8.196 22 7.379ZM5.438 20.759C7.338 20.759 8.878 19.245 8.878 17.379C8.878 15.513 7.339 14 5.439 14C3.54 14 2 15.513 2 17.378C2 19.244 3.54 20.758 5.438 20.759ZM22 17.379C22 16.562 21.324 15.899 20.493 15.899H13.918C13.086 15.899 12.41 16.562 12.41 17.379C12.41 18.196 13.086 18.859 13.918 18.859H20.493C21.324 18.859 22 18.196 22 17.379Z" fill="#00011F"/>
</svg>
