<svg width="24" height="24" viewBox="0 0 24 24" fill="none" xmlns="http://www.w3.org/2000/svg">
<path fill-rule="evenodd" clip-rule="evenodd" d="M3 16.8698V9.25684H21V16.9308C21 20.0698 19.024 21.9998 15.863 21.9998H8.127C4.996 21.9998 3 20.0298 3 16.8698ZM7.96 14.4098C7.85163 14.4136 7.74359 14.3958 7.64211 14.3576C7.54063 14.3194 7.4477 14.2615 7.3687 14.1873C7.28969 14.113 7.22615 14.0238 7.18176 13.9249C7.13736 13.826 7.11297 13.7192 7.11 13.6108C7.11 13.1508 7.465 12.7708 7.92 12.7498C8.364 12.7498 8.73 13.1008 8.74 13.5498C8.75033 13.7672 8.67402 13.9799 8.5278 14.1411C8.38158 14.3023 8.17738 14.399 7.96 14.4098ZM12.02 14.4098C11.9116 14.4136 11.8036 14.3958 11.7021 14.3576C11.6006 14.3194 11.5077 14.2615 11.4287 14.1873C11.3497 14.113 11.2862 14.0238 11.2418 13.9249C11.1974 13.826 11.173 13.7192 11.17 13.6108C11.17 13.1508 11.526 12.7708 11.98 12.7498C12.425 12.7498 12.79 13.1008 12.8 13.5498C12.8103 13.7672 12.734 13.9799 12.5878 14.1411C12.4416 14.3023 12.2374 14.399 12.02 14.4098ZM16.05 18.0898C15.8296 18.0828 15.6205 17.9901 15.4674 17.8313C15.3143 17.6726 15.2291 17.4604 15.23 17.2398C15.2252 17.0199 15.3077 16.8071 15.4595 16.6479C15.6114 16.4888 15.8201 16.3963 16.04 16.3908H16.05C16.515 16.3908 16.89 16.7708 16.89 17.2398C16.89 17.7098 16.515 18.0898 16.05 18.0898ZM11.17 17.2398C11.19 17.6998 11.565 18.0608 12.02 18.0398C12.2373 18.0292 12.4415 17.9328 12.5877 17.7717C12.734 17.6107 12.8103 17.3981 12.8 17.1808C12.7958 16.9664 12.7075 16.7622 12.5541 16.6124C12.4006 16.4625 12.1945 16.379 11.98 16.3798C11.7603 16.3914 11.5534 16.4873 11.4026 16.6474C11.2517 16.8076 11.1684 17.0198 11.17 17.2398ZM7.1 17.2398C7.12 17.6998 7.495 18.0608 7.95 18.0398C8.16729 18.0292 8.37149 17.9328 8.51774 17.7717C8.66398 17.6107 8.74033 17.3981 8.73 17.1808C8.7258 16.9664 8.63746 16.7622 8.48405 16.6124C8.33064 16.4625 8.12446 16.379 7.91 16.3798C7.69026 16.3914 7.48345 16.4873 7.33258 16.6474C7.18171 16.8076 7.09841 17.0198 7.1 17.2398ZM15.24 13.6008C15.24 13.1408 15.596 12.7708 16.05 12.7608C16.495 12.7608 16.85 13.1198 16.87 13.5608C16.8739 13.6685 16.8565 13.7758 16.8189 13.8767C16.7813 13.9776 16.7242 14.0701 16.6508 14.149C16.5775 14.2278 16.4893 14.2914 16.3914 14.3362C16.2934 14.3809 16.1876 14.406 16.08 14.4098C15.9722 14.4133 15.8648 14.3953 15.764 14.3569C15.6632 14.3185 15.571 14.2604 15.4929 14.1861C15.4147 14.1117 15.3521 14.0226 15.3087 13.9238C15.2653 13.8251 15.2419 13.7187 15.24 13.6108V13.6008Z" fill="white"/>
<path opacity="0.4" d="M3.00293 9.25723C3.01593 8.67023 3.06593 7.50523 3.15793 7.13023C3.63293 5.02023 5.24293 3.68023 7.54493 3.49023H16.4549C18.7379 3.69023 20.3679 5.04023 20.8419 7.13023C20.9339 7.49523 20.9839 8.66923 20.9959 9.25723H3.00293Z" fill="white"/>
<path d="M8.3049 6.59009C8.7399 6.59009 9.0649 6.26109 9.0649 5.82009V2.77109C9.06802 2.67001 9.05061 2.56934 9.01373 2.47518C8.97684 2.38102 8.92125 2.29532 8.8503 2.22325C8.77936 2.15118 8.69454 2.09425 8.60096 2.05589C8.50739 2.01754 8.40701 1.99855 8.3059 2.00009C7.8709 2.00009 7.5459 2.33009 7.5459 2.77109V5.82009C7.5459 6.26109 7.8709 6.59009 8.3059 6.59009H8.3049Z" fill="white"/>
<path d="M15.6951 6.59003C16.1201 6.59003 16.4551 6.26103 16.4551 5.82003V2.77103C16.4573 2.67008 16.4393 2.56971 16.4021 2.47586C16.3648 2.38201 16.3091 2.29659 16.2382 2.22469C16.1673 2.15278 16.0827 2.09584 15.9894 2.05725C15.8961 2.01865 15.796 1.9992 15.6951 2.00003C15.2601 2.00003 14.9351 2.33003 14.9351 2.77103V5.82003C14.9351 6.26103 15.2601 6.59003 15.6951 6.59003Z" fill="white"/>
</svg>
