<svg width="16" height="16" viewBox="0 0 16 16" fill="none" xmlns="http://www.w3.org/2000/svg">
<path opacity="0.1" d="M14.6668 7.99967C14.6668 11.6763 11.6762 14.6663 8.00016 14.6663C4.32416 14.6663 1.3335 11.6763 1.3335 7.99967C1.3335 4.32367 4.32416 1.33301 8.00016 1.33301C11.6762 1.33301 14.6668 4.32367 14.6668 7.99967Z" fill="#00011F"/>
<path d="M10.8136 7.03801C10.8139 7.10357 10.8011 7.16854 10.7762 7.22917C10.7513 7.2898 10.7146 7.34492 10.6683 7.39134L8.35496 9.71534C8.30846 9.76193 8.25323 9.79889 8.19243 9.8241C8.13163 9.84932 8.06645 9.86229 8.00063 9.86229C7.93481 9.86229 7.86963 9.84932 7.80883 9.8241C7.74803 9.79889 7.6928 9.76193 7.64629 9.71534L5.33163 7.39068C5.23809 7.2967 5.18572 7.16942 5.18604 7.03683C5.18635 6.90424 5.23932 6.77721 5.33329 6.68368C5.42727 6.59015 5.55455 6.53777 5.68714 6.53809C5.81973 6.5384 5.94676 6.59137 6.04029 6.68534L8.00029 8.65468L9.96029 6.68534C10.0302 6.61551 10.1193 6.56796 10.2162 6.5487C10.3131 6.52944 10.4136 6.53935 10.5049 6.57715C10.5962 6.61496 10.6743 6.67898 10.7292 6.76112C10.7842 6.84327 10.8135 6.93985 10.8136 7.03868V7.03801Z" fill="#00011F"/>
</svg>
