<svg width="24" height="24" viewBox="0 0 24 24" fill="none" xmlns="http://www.w3.org/2000/svg">
<path d="M12.122 15.4365V3.39648" stroke="#200E32" stroke-width="1.5" stroke-linecap="round" stroke-linejoin="round"/>
<path d="M15.038 12.5088L12.122 15.4368L9.20599 12.5088" stroke="#200E32" stroke-width="1.5" stroke-linecap="round" stroke-linejoin="round"/>
<path d="M16.755 8.12891H17.688C18.1719 8.12891 18.651 8.22423 19.098 8.40943C19.5451 8.59463 19.9512 8.86608 20.2933 9.20828C20.6354 9.55047 20.9068 9.95671 21.0919 10.4038C21.2769 10.8509 21.3721 11.33 21.372 11.8139V16.6979C21.372 17.6726 20.9848 18.6073 20.2956 19.2965C19.6064 19.9857 18.6717 20.3729 17.697 20.3729H6.55701C5.57969 20.3729 4.64239 19.9847 3.95132 19.2936C3.26025 18.6025 2.87201 17.6652 2.87201 16.6879V11.8029C2.87227 10.8284 3.25958 9.89391 3.94875 9.20494C4.63791 8.51596 5.57251 8.12891 6.54701 8.12891H7.48901" stroke="#200E32" stroke-width="1.5" stroke-linecap="round" stroke-linejoin="round"/>
</svg>
