<svg width="24" height="24" viewBox="0 0 24 24" fill="none" xmlns="http://www.w3.org/2000/svg">
<path opacity="0.4" d="M13.75 9.70315V7.68315C13.5609 7.68451 13.3789 7.61143 13.2432 7.47971C13.1076 7.34798 13.0292 7.16818 13.025 6.97915V4.57415C13.0246 4.49752 13.009 4.42174 12.979 4.35122C12.949 4.2807 12.9053 4.21686 12.8504 4.16343C12.7954 4.11 12.7304 4.06804 12.6591 4.04C12.5878 4.01197 12.5116 3.99842 12.435 4.00015H5.791C3.702 4.00015 2 5.65315 2 7.68315V10.1151C2 10.3051 2.077 10.4831 2.213 10.6151C2.348 10.7451 2.532 10.8201 2.725 10.8201C3.46 10.8201 4.021 11.3271 4.021 11.9941C4.021 12.6911 3.451 13.2441 2.735 13.2541C2.338 13.2541 2 13.5261 2 13.9201V16.3261C2 18.3561 3.702 20.0001 5.781 20.0001H12.435C12.764 20.0001 13.025 19.7451 13.025 19.4271V17.3971C13.025 17.0031 13.354 16.6921 13.751 16.6921V14.8701C13.5618 14.8715 13.3797 14.7985 13.2439 14.6668C13.1081 14.5351 13.0295 14.3553 13.025 14.1661V10.4081C13.0289 10.2188 13.1074 10.0386 13.2433 9.90659C13.3791 9.77462 13.5616 9.70153 13.751 9.70315H13.75Z" fill="white"/>
<path d="M19.979 11.995C19.979 12.69 20.559 13.245 21.265 13.254C21.661 13.254 22 13.526 22 13.911V16.326C22 18.356 20.308 20 18.219 20H15.066C14.9119 20.0013 14.7634 19.9418 14.653 19.8343C14.5425 19.7268 14.4789 19.5801 14.476 19.426V17.396C14.4755 17.3018 14.4562 17.2087 14.4193 17.1221C14.3823 17.0354 14.3285 16.9571 14.2609 16.8915C14.1933 16.8259 14.1133 16.7745 14.0255 16.7403C13.9378 16.706 13.8441 16.6896 13.75 16.692V14.87C14.157 14.87 14.476 14.55 14.476 14.166V10.408C14.4748 10.314 14.4551 10.2211 14.4179 10.1347C14.3808 10.0484 14.3269 9.97018 14.2595 9.90467C14.192 9.83916 14.1123 9.78763 14.0248 9.75302C13.9374 9.71841 13.844 9.70141 13.75 9.703V7.683C14.157 7.683 14.476 7.363 14.476 6.978V4.574C14.476 4.254 14.746 4 15.066 4H18.219C20.307 4 22 5.644 22 7.673V10.041C21.9998 10.1341 21.9808 10.2261 21.9442 10.3117C21.9076 10.3972 21.8541 10.4745 21.787 10.539C21.6496 10.6716 21.4659 10.7454 21.275 10.745C20.559 10.745 19.979 11.31 19.979 11.995Z" fill="white"/>
</svg>
