<svg width="24" height="24" viewBox="0 0 24 24" fill="none" xmlns="http://www.w3.org/2000/svg">
<path d="M9.35 14.8584C5.386 14.8584 2 15.4704 2 17.9184C2 20.3664 5.364 21.0004 9.35 21.0004C13.313 21.0004 16.699 20.3884 16.699 17.9404C16.699 15.4914 13.335 14.8584 9.349 14.8584H9.35Z" fill="white"/>
<path opacity="0.4" d="M9.35008 12.525C12.0491 12.525 14.2121 10.406 14.2121 7.762C14.2121 5.12 12.0501 3 9.35008 3C6.65108 3 4.48608 5.119 4.48608 7.762C4.48608 10.406 6.65108 12.525 9.34908 12.525H9.35008Z" fill="white"/>
<path opacity="0.4" d="M16.1729 7.84892C16.1759 9.15196 15.779 10.4245 15.0359 11.4949C14.9609 11.6019 15.0279 11.7469 15.1589 11.7699C15.3409 11.7999 15.5279 11.8179 15.7189 11.8219C17.6169 11.8699 19.3199 10.6739 19.7909 8.87192C20.4879 6.19692 18.4409 3.79492 15.8339 3.79492C15.5509 3.79492 15.2799 3.82492 15.0159 3.87692C14.9799 3.88492 14.9409 3.90192 14.9209 3.93192C14.8959 3.97192 14.9139 4.02192 14.9399 4.05592C15.7436 5.15706 16.1755 6.48567 16.1729 7.84892Z" fill="white"/>
<path d="M21.7801 15.1697C21.4321 14.4437 20.5931 13.9467 19.3171 13.7017C18.7151 13.5587 17.0851 13.3537 15.5701 13.3827C15.5471 13.3857 15.5341 13.4007 15.5331 13.4107C15.5301 13.4257 15.5371 13.4487 15.5661 13.4657C16.2661 13.8047 18.9741 15.2807 18.6331 18.3927C18.6289 18.4243 18.6322 18.4564 18.6425 18.4866C18.6528 18.5168 18.6699 18.5442 18.6926 18.5667C18.7153 18.5891 18.7428 18.606 18.7731 18.6161C18.8033 18.6262 18.8355 18.6291 18.8671 18.6247C19.5331 18.5317 21.2471 18.1707 21.7791 17.0467C21.9244 16.755 22 16.4335 22 16.1077C22 15.7818 21.9244 15.4603 21.7791 15.1687L21.7801 15.1697Z" fill="white"/>
</svg>
