<svg width="18" height="15" viewBox="0 0 18 15" fill="none" xmlns="http://www.w3.org/2000/svg">
<path fill-rule="evenodd" clip-rule="evenodd" d="M10.002 0.244294C9.8488 0.401662 9.76332 0.612776 9.76388 0.832406C9.76444 1.05204 9.851 1.26271 10.005 1.41929L13.645 5.09829L13.729 5.17229C13.886 5.29335 14.082 5.35241 14.2797 5.33821C14.4774 5.32401 14.663 5.23754 14.801 5.09529C14.9552 4.93873 15.0415 4.72766 15.0412 4.50788C15.0408 4.28811 14.9538 4.07734 14.799 3.92129L11.159 0.241295L11.076 0.168295C10.9188 0.0471801 10.7225 -0.0119883 10.5246 0.00202159C10.3266 0.0160314 10.1406 0.102244 10.002 0.244294ZM0.716012 6.67629C0.516949 6.70325 0.334504 6.80175 0.202746 6.95338C0.0709871 7.10501 -0.00107639 7.29942 1.21542e-05 7.50029C1.21542e-05 7.95829 0.367012 8.33029 0.818012 8.33029H15.201L10.005 13.5813L9.93101 13.6663C9.81108 13.8267 9.75243 14.0247 9.76564 14.2246C9.77884 14.4245 9.86302 14.613 10.003 14.7563C10.0783 14.8332 10.1681 14.8944 10.2673 14.9362C10.3665 14.978 10.473 14.9996 10.5806 14.9998C10.6882 15 10.7948 14.9788 10.8941 14.9373C10.9934 14.8958 11.0835 14.835 11.159 14.7583L17.759 8.08829L17.832 8.00429C17.9193 7.88853 17.9749 7.75208 17.9935 7.60832C18.0121 7.46456 17.993 7.31844 17.938 7.18429C17.8776 7.03301 17.7733 6.90325 17.6386 6.81166C17.5039 6.72007 17.3449 6.67084 17.182 6.67029H0.818012L0.716012 6.67629Z" fill="#00011F"/>
</svg>
