<svg width="24" height="24" viewBox="0 0 24 24" fill="none" xmlns="http://www.w3.org/2000/svg">
<path opacity="0.4" d="M16.191 2H7.81C4.77 2 3 3.78 3 6.83V17.16C3 20.26 4.77 22 7.81 22H16.191C19.28 22 21 20.26 21 17.16V6.83C21 3.78 19.28 2 16.191 2Z" fill="white"/>
<path fill-rule="evenodd" clip-rule="evenodd" d="M8.08001 6.65039V6.66039C7.87314 6.66039 7.67474 6.74257 7.52847 6.88885C7.38219 7.03513 7.30001 7.23352 7.30001 7.44039C7.30001 7.64726 7.38219 7.84566 7.52847 7.99193C7.67474 8.13821 7.87314 8.22039 8.08001 8.22039H11.069C11.5 8.22039 11.85 7.87039 11.85 7.42939C11.8495 7.2226 11.767 7.02447 11.6206 6.87843C11.4741 6.7324 11.2758 6.65039 11.069 6.65039H8.08001ZM15.92 12.7404H8.08001C7.87301 12.7404 7.67449 12.6582 7.52811 12.5118C7.38174 12.3654 7.29951 12.1669 7.29951 11.9599C7.29951 11.7529 7.38174 11.5544 7.52811 11.408C7.67449 11.2616 7.87301 11.1794 8.08001 11.1794H15.92C16.1222 11.1866 16.3136 11.272 16.4541 11.4176C16.5946 11.5632 16.6731 11.7576 16.6731 11.9599C16.6731 12.1622 16.5946 12.3566 16.4541 12.5022C16.3136 12.6478 16.1222 12.7332 15.92 12.7404ZM15.92 17.3104H8.08001C7.78001 17.3504 7.49001 17.2004 7.33001 16.9504C7.25215 16.8246 7.21093 16.6796 7.21097 16.5317C7.21101 16.3838 7.25232 16.2388 7.33025 16.1131C7.40817 15.9874 7.51963 15.8859 7.65209 15.82C7.78454 15.7542 7.93274 15.7266 8.08001 15.7404H15.92C16.319 15.7804 16.62 16.1204 16.62 16.5304C16.62 16.9294 16.319 17.2704 15.92 17.3104Z" fill="white"/>
</svg>
