<svg width="24" height="24" viewBox="0 0 24 24" fill="none" xmlns="http://www.w3.org/2000/svg">
<path d="M10.1171 17.9873H2.88306" stroke="#00011F" stroke-width="1.5" stroke-linecap="round" stroke-linejoin="round"/>
<path fill-rule="evenodd" clip-rule="evenodd" d="M21.1182 17.9864C21.1182 18.7503 20.8147 19.4828 20.2746 20.0229C19.7345 20.563 19.002 20.8664 18.2382 20.8664C17.4743 20.8664 16.7418 20.563 16.2017 20.0229C15.6616 19.4828 15.3582 18.7503 15.3582 17.9864C15.3582 17.2226 15.6616 16.4901 16.2017 15.95C16.7418 15.4099 17.4743 15.1064 18.2382 15.1064C19.002 15.1064 19.7345 15.4099 20.2746 15.95C20.8147 16.4901 21.1182 17.2226 21.1182 17.9864V17.9864Z" stroke="#00011F" stroke-width="1.5" stroke-linecap="round" stroke-linejoin="round"/>
<path d="M13.8831 6.26172H21.1181" stroke="#00011F" stroke-width="1.5" stroke-linecap="round" stroke-linejoin="round"/>
<path fill-rule="evenodd" clip-rule="evenodd" d="M2.88306 6.26184C2.88306 6.64004 2.95755 7.01455 3.10228 7.36396C3.24702 7.71338 3.45916 8.03087 3.72659 8.2983C3.99402 8.56574 4.31151 8.77788 4.66093 8.92261C5.01035 9.06734 5.38485 9.14184 5.76306 9.14184C6.14126 9.14184 6.51577 9.06734 6.86519 8.92261C7.2146 8.77788 7.53209 8.56574 7.79952 8.2983C8.06696 8.03087 8.2791 7.71338 8.42383 7.36396C8.56856 7.01455 8.64306 6.64004 8.64306 6.26184C8.64306 5.88363 8.56856 5.50913 8.42383 5.15971C8.2791 4.81029 8.06696 4.4928 7.79952 4.22537C7.53209 3.95794 7.2146 3.7458 6.86519 3.60106C6.51577 3.45633 6.14126 3.38184 5.76306 3.38184C5.38485 3.38184 5.01035 3.45633 4.66093 3.60106C4.31151 3.7458 3.99402 3.95794 3.72659 4.22537C3.45916 4.4928 3.24702 4.81029 3.10228 5.15971C2.95755 5.50913 2.88306 5.88363 2.88306 6.26184V6.26184Z" stroke="#00011F" stroke-width="1.5" stroke-linecap="round" stroke-linejoin="round"/>
</svg>
