<svg width="24" height="24" viewBox="0 0 24 24" fill="none" xmlns="http://www.w3.org/2000/svg">
<path opacity="0.2" d="M21.25 13.476C20.8571 13.4773 20.4797 13.3228 20.2006 13.0463C19.9215 12.7698 19.7634 12.3939 19.761 12.001C19.761 11.187 20.429 10.525 21.25 10.525C21.449 10.525 21.64 10.446 21.78 10.308C21.8499 10.239 21.9053 10.1568 21.9431 10.0661C21.9809 9.97547 22.0002 9.8782 22 9.78L21.999 7.103C21.999 4.841 20.14 3 17.856 3H6.144C3.86 3 2.001 4.841 2.001 7.104L2 9.868C2.00007 9.96587 2.01954 10.0628 2.05731 10.153C2.09507 10.2433 2.15037 10.3252 2.22 10.394C2.36 10.533 2.551 10.611 2.75 10.611C3.599 10.611 4.239 11.208 4.239 12.001C4.239 12.815 3.571 13.476 2.75 13.476C2.55206 13.4752 2.36189 13.553 2.22126 13.6923C2.08064 13.8316 2.00106 14.0211 2 14.219V16.895C2 19.158 3.858 21 6.143 21H17.857C20.142 21 22 19.158 22 16.895V14.22C21.9996 14.1219 21.9799 14.0248 21.942 13.9344C21.9041 13.8439 21.8487 13.7618 21.7791 13.6927C21.7094 13.6236 21.6269 13.5689 21.5361 13.5317C21.4453 13.4945 21.3481 13.4756 21.25 13.476Z" fill="#1F75F7"/>
<path d="M15.43 11.5892L14.252 12.7372L14.53 14.3602C14.5543 14.4964 14.5394 14.6367 14.4872 14.7649C14.435 14.893 14.3475 15.0037 14.235 15.0842C14.1236 15.1664 13.9911 15.2152 13.853 15.2249C13.7149 15.2347 13.5768 15.2049 13.455 15.1392L11.999 14.3742L10.541 15.1402C10.4354 15.1966 10.3177 15.2265 10.198 15.2272C10.0419 15.2269 9.88999 15.1772 9.76398 15.0852C9.65159 15.0043 9.56429 14.8934 9.51211 14.7652C9.45993 14.6369 9.44498 14.4966 9.46898 14.3602L9.74698 12.7372L8.56798 11.5892C8.44436 11.6057 8.31857 11.5906 8.20239 11.5452C8.08622 11.4999 7.98345 11.4258 7.90371 11.3299C7.82397 11.234 7.76987 11.1194 7.74648 10.9969C7.72309 10.8744 7.73116 10.748 7.76995 10.6295C7.80874 10.5109 7.87698 10.4042 7.96827 10.3192C8.05956 10.2342 8.17092 10.1738 8.29192 10.1436C8.41293 10.1134 8.53962 10.1144 8.66013 10.1465C8.78064 10.1786 8.89104 10.2408 8.98098 10.3272L10.608 10.0902L11.336 8.6132C11.3969 8.48907 11.4914 8.38455 11.6088 8.31153C11.7262 8.23851 11.8617 8.19993 12 8.2002H12.002C12.1401 8.19989 12.2755 8.23845 12.3928 8.31149C12.51 8.38452 12.6044 8.48908 12.665 8.6132L13.394 10.0892L15.022 10.3272C15.1583 10.3461 15.2865 10.403 15.3919 10.4915C15.4973 10.5799 15.5757 10.6963 15.618 10.8272C15.6622 10.9586 15.6681 11.0998 15.6349 11.2344C15.6018 11.369 15.5311 11.4913 15.431 11.5872L15.43 11.5892Z" fill="#1F75F7"/>
</svg>
