<svg width="48" height="48" viewBox="0 0 48 48" fill="none" xmlns="http://www.w3.org/2000/svg">
<rect width="48" height="48" rx="10" fill="#FFEBDF"/>
<path d="M35 22C35.552 22 36 21.552 36 21V16C36 15.448 35.552 15 35 15H13C12.448 15 12 15.448 12 16V21C12 21.552 12.448 22 13 22C14.14 22 15 22.86 15 24C15 25.14 14.14 26 13 26C12.448 26 12 26.448 12 27V32C12 32.552 12.448 33 13 33H35C35.552 33 36 32.552 36 32V27C36 26.448 35.552 26 35 26C33.86 26 33 25.14 33 24C33 22.86 33.86 22 35 22ZM20.5 19C21.328 19 22 19.672 22 20.5C22 21.328 21.328 22 20.5 22C19.672 22 19 21.328 19 20.5C19 19.672 19.672 19 20.5 19ZM27.5 29C26.672 29 26 28.328 26 27.5C26 26.672 26.672 26 27.5 26C28.328 26 29 26.672 29 27.5C29 28.328 28.328 29 27.5 29ZM20 29.414L18.586 28L28 18.586L29.414 20L20 29.414Z" fill="url(#paint0_linear)"/>
<defs>
<linearGradient id="paint0_linear" x1="36" y1="15" x2="13" y2="31.5" gradientUnits="userSpaceOnUse">
<stop stop-color="#FFAA7A"/>
<stop offset="1" stop-color="#F0805D"/>
</linearGradient>
</defs>
</svg>
