<svg width="40" height="40" viewBox="0 0 40 40" fill="none" xmlns="http://www.w3.org/2000/svg">
<path d="M0 10H3.1289V18.1067H6.48536V10H9.61427V29.9112H6.48536V20.9512H3.1289V29.9112H0V10Z" fill="white"/>
<path d="M14.8702 10H19.1085L22.3512 29.9112H19.2222L18.6534 25.9574V26.0143H15.0978L14.5289 29.9112H11.6275L14.8702 10ZM18.2836 23.3121L16.8898 13.4702H16.8329L15.4676 23.3121H18.2836Z" fill="white"/>
<path d="M24.3771 10H27.506V29.9112H24.3771V10Z" fill="white"/>
<path d="M30.3573 10H34.9938C36.6056 10 37.7813 10.3793 38.5209 11.1378C39.2604 11.8773 39.6302 13.0246 39.6302 14.5796V15.8027C39.6302 17.8697 38.9476 19.1781 37.5822 19.728V19.7849C38.3407 20.0125 38.8717 20.4771 39.1751 21.1787C39.4975 21.8804 39.6587 22.819 39.6587 23.9947V27.4934C39.6587 28.0623 39.6776 28.5269 39.7156 28.8872C39.7535 29.2285 39.8483 29.5699 40 29.9112H36.8142C36.7004 29.5888 36.6246 29.2854 36.5867 29.001C36.5487 28.7165 36.5298 28.2045 36.5298 27.465V23.8241C36.5298 22.9138 36.3781 22.2786 36.0746 21.9183C35.7902 21.558 35.2877 21.3778 34.5671 21.3778H33.4862V29.9112H30.3573V10ZM34.624 18.5334C35.2498 18.5334 35.7144 18.3722 36.0178 18.0498C36.3401 17.7274 36.5013 17.187 36.5013 16.4285V14.8925C36.5013 14.1719 36.3686 13.6504 36.1031 13.328C35.8566 13.0056 35.4583 12.8445 34.9084 12.8445H33.4862V18.5334H34.624Z" fill="white"/>
</svg>
